<svg width="289" height="192" viewBox="0 0 289 192" fill="none" xmlns="http://www.w3.org/2000/svg">
<path fill-rule="evenodd" clip-rule="evenodd" d="M85.6296 0H0V53.3333C5.9086 53.3333 10.699 58.1043 10.7037 63.9914L10.7037 64L10.7037 64.0086C10.699 69.8957 5.90861 74.6667 0 74.6667V117.333C5.91149 117.333 10.7037 122.109 10.7037 128H21.4074C21.4074 125.054 23.8035 122.667 26.7593 122.667H37.463C40.4187 122.667 42.8148 125.054 42.8148 128H53.5185C53.5185 125.054 55.9146 122.667 58.8704 122.667H69.5741C72.5298 122.667 74.9259 125.054 74.9259 128H85.6296C85.6296 122.109 90.4218 117.333 96.3333 117.333C102.245 117.333 107.037 122.109 107.037 128C107.037 133.891 102.245 138.667 96.3333 138.667V149.333C99.2891 149.333 101.685 151.721 101.685 154.667V165.333C101.685 168.279 99.2891 170.667 96.3333 170.667V181.333C102.245 181.333 107.037 186.109 107.037 192H181.963C181.963 186.109 186.755 181.333 192.667 181.333C198.578 181.333 203.37 186.109 203.37 192H289V138.667C283.089 138.667 278.296 133.891 278.296 128C278.296 122.109 283.089 117.333 289 117.333V74.6667C283.089 74.6667 278.296 69.891 278.296 64C278.296 58.109 283.089 53.3333 289 53.3333V0H203.37C203.37 5.89104 198.578 10.6667 192.667 10.6667C186.755 10.6667 181.963 5.89104 181.963 0H107.037C107.037 5.89104 102.245 10.6667 96.3333 10.6667C90.4218 10.6667 85.6296 5.89104 85.6296 0ZM192.667 42.6667C189.711 42.6667 187.315 40.2789 187.315 37.3333V26.6667C187.315 23.7211 189.711 21.3333 192.667 21.3333C195.622 21.3333 198.019 23.7211 198.019 26.6667V37.3333C198.019 40.2789 195.622 42.6667 192.667 42.6667ZM181.963 64C181.963 58.109 186.755 53.3333 192.667 53.3333C198.578 53.3333 203.37 58.109 203.37 64C203.37 69.891 198.578 74.6667 192.667 74.6667C186.755 74.6667 181.963 69.891 181.963 64ZM192.667 106.667C189.711 106.667 187.315 104.279 187.315 101.333V90.6667C187.315 87.7212 189.711 85.3333 192.667 85.3333C195.622 85.3333 198.019 87.7212 198.019 90.6667V101.333C198.019 104.279 195.622 106.667 192.667 106.667ZM192.667 138.667C186.755 138.667 181.963 133.891 181.963 128C181.963 122.109 186.755 117.333 192.667 117.333C198.578 117.333 203.37 122.109 203.37 128C203.37 133.891 198.578 138.667 192.667 138.667ZM192.667 170.667C189.711 170.667 187.315 168.279 187.315 165.333V154.667C187.315 151.721 189.711 149.333 192.667 149.333C195.622 149.333 198.019 151.721 198.019 154.667V165.333C198.019 168.279 195.622 170.667 192.667 170.667ZM90.9815 37.3333C90.9815 40.2789 93.3776 42.6667 96.3333 42.6667C99.2891 42.6667 101.685 40.2789 101.685 37.3333V26.6667C101.685 23.7211 99.2891 21.3333 96.3333 21.3333C93.3776 21.3333 90.9815 23.7211 90.9815 26.6667V37.3333ZM85.6296 64C85.6296 69.891 90.4218 74.6667 96.3333 74.6667C102.245 74.6667 107.037 69.891 107.037 64C107.037 58.109 102.245 53.3333 96.3333 53.3333C90.4218 53.3333 85.6296 58.109 85.6296 64ZM90.9815 101.333C90.9815 104.279 93.3776 106.667 96.3333 106.667C99.2891 106.667 101.685 104.279 101.685 101.333V90.6667C101.685 87.7212 99.2891 85.3333 96.3333 85.3333C93.3776 85.3333 90.9815 87.7212 90.9815 90.6667V101.333ZM133.796 133.333C136.752 133.333 139.148 130.946 139.148 128C139.148 125.054 136.752 122.667 133.796 122.667H123.093C120.137 122.667 117.741 125.054 117.741 128C117.741 130.946 120.137 133.333 123.093 133.333H133.796ZM171.259 128C171.259 130.946 168.863 133.333 165.907 133.333H155.204C152.248 133.333 149.852 130.946 149.852 128C149.852 125.054 152.248 122.667 155.204 122.667H165.907C168.863 122.667 171.259 125.054 171.259 128ZM235.481 128C235.481 130.946 233.085 133.333 230.13 133.333H219.426C216.47 133.333 214.074 130.946 214.074 128C214.074 125.054 216.47 122.667 219.426 122.667H230.13C233.085 122.667 235.481 125.054 235.481 128ZM262.241 133.333C265.196 133.333 267.593 130.946 267.593 128C267.593 125.054 265.196 122.667 262.241 122.667H251.537C248.581 122.667 246.185 125.054 246.185 128C246.185 130.946 248.581 133.333 251.537 133.333H262.241ZM42.8148 64C42.8148 66.9455 40.4187 69.3333 37.463 69.3333H26.7593C23.8035 69.3333 21.4074 66.9455 21.4074 64C21.4074 61.0545 23.8035 58.6667 26.7593 58.6667H37.463C40.4187 58.6667 42.8148 61.0545 42.8148 64ZM69.5741 69.3333C72.5298 69.3333 74.9259 66.9455 74.9259 64C74.9259 61.0545 72.5298 58.6667 69.5741 58.6667H58.8704C55.9146 58.6667 53.5185 61.0545 53.5185 64C53.5185 66.9455 55.9146 69.3333 58.8704 69.3333H69.5741ZM133.796 69.3333C136.752 69.3333 139.148 66.9455 139.148 64C139.148 61.0545 136.752 58.6667 133.796 58.6667H123.093C120.137 58.6667 117.741 61.0545 117.741 64C117.741 66.9455 120.137 69.3333 123.093 69.3333H133.796ZM171.259 64C171.259 66.9455 168.863 69.3333 165.907 69.3333H155.204C152.248 69.3333 149.852 66.9455 149.852 64C149.852 61.0545 152.248 58.6667 155.204 58.6667H165.907C168.863 58.6667 171.259 61.0545 171.259 64ZM235.481 64C235.481 66.9455 233.085 69.3333 230.13 69.3333H219.426C216.47 69.3333 214.074 66.9455 214.074 64C214.074 61.0545 216.47 58.6667 219.426 58.6667H230.13C233.085 58.6667 235.481 61.0545 235.481 64ZM262.241 69.3333C265.196 69.3333 267.593 66.9455 267.593 64C267.593 61.0545 265.196 58.6667 262.241 58.6667H251.537C248.581 58.6667 246.185 61.0545 246.185 64C246.185 66.9455 248.581 69.3333 251.537 69.3333H262.241Z" fill="#2D6684"/>
<path d="M289 53.3333V0H203.37C203.37 5.89104 198.578 10.6667 192.667 10.6667V21.3333C195.622 21.3333 198.019 23.7211 198.019 26.6667V37.3333C198.019 40.2789 195.622 42.6667 192.667 42.6667V53.3333C198.578 53.3333 203.37 58.109 203.37 64H214.074C214.074 61.0545 216.47 58.6667 219.426 58.6667H230.13C233.085 58.6667 235.481 61.0545 235.481 64H246.185C246.185 61.0545 248.581 58.6667 251.537 58.6667H262.241C265.196 58.6667 267.593 61.0545 267.593 64H278.296C278.296 58.109 283.089 53.3333 289 53.3333Z" fill="#4A9F6D"/>
<path d="M181.963 64C181.963 69.891 186.755 74.6667 192.667 74.6667V85.3333C189.711 85.3333 187.315 87.7212 187.315 90.6667V101.333C187.315 104.279 189.711 106.667 192.667 106.667V117.333C186.755 117.333 181.963 122.109 181.963 128H171.259C171.259 125.054 168.863 122.667 165.907 122.667H155.204C152.248 122.667 149.852 125.054 149.852 128H139.148C139.148 125.054 136.752 122.667 133.796 122.667H123.093C120.137 122.667 117.741 125.054 117.741 128H107.037C107.037 122.109 102.245 117.333 96.3333 117.333V106.667C99.2891 106.667 101.685 104.279 101.685 101.333V90.6667C101.685 87.7212 99.2891 85.3333 96.3333 85.3333V74.6667C102.245 74.6667 107.037 69.891 107.037 64H117.741C117.741 66.9455 120.137 69.3333 123.093 69.3333H133.796C136.752 69.3333 139.148 66.9455 139.148 64H149.852C149.852 66.9455 152.248 69.3333 155.204 69.3333H165.907C168.863 69.3333 171.259 66.9455 171.259 64H181.963Z" fill="#4A9F6D"/>
</svg>
