<svg width="126" height="78" viewBox="0 0 126 78" fill="none" xmlns="http://www.w3.org/2000/svg">
<path fill-rule="evenodd" clip-rule="evenodd" d="M38 0H0V22C2.20914 22 4 23.7909 4 26C4 28.2091 2.20914 30 0 30V48C2.20914 48 4 49.7909 4 52H5.4127C5.4127 51.4477 5.86041 51 6.4127 51H9.36508C9.91736 51 10.3651 51.4477 10.3651 52H12.3016C12.3016 51.4477 12.7493 51 13.3016 51H16.254C16.8063 51 17.254 51.4477 17.254 52H19.1905C19.1905 51.4477 19.6382 51 20.1905 51H23.1429C23.6951 51 24.1429 51.4477 24.1429 52H26.0794C26.0794 51.4477 26.5271 51 27.0794 51H30.0317C30.584 51 31.0317 51.4477 31.0317 52H32.9683C32.9683 51.4477 33.416 51 33.9683 51H36.9206C37.4729 51 37.9206 51.4477 37.9206 52H39.8571C39.8571 51.4477 40.3049 51 40.8571 51H41.0121C41.0041 50.9492 41 50.8972 41 50.8442V47.8831C41 47.3308 41.4477 46.8831 42 46.8831C42.5523 46.8831 43 47.3308 43 47.8831V50.8442C43 50.8972 42.9959 50.9492 42.9879 51H43.8095C44.3618 51 44.8095 51.4477 44.8095 52C44.8095 52.5523 44.3618 53 43.8095 53H42V53.7922C42.5523 53.7922 43 54.2399 43 54.7922V57.7533C43 58.3055 42.5523 58.7533 42 58.7533V60.7013C42.5523 60.7013 43 61.149 43 61.7013V64.6623C43 65.2146 42.5523 65.6623 42 65.6623V67.6104C42.5523 67.6104 43 68.0581 43 68.6104V71.5714C43 72.1237 42.5523 72.5714 42 72.5714V74C44.2091 74 46 75.7909 46 78H80C80 75.7909 81.7909 74 84 74C86.2091 74 88 75.7909 88 78H126V56C123.791 56 122 54.2091 122 52C122 49.7909 123.791 48 126 48V30C123.791 30 122 28.2091 122 26C122 23.7909 123.791 22 126 22V0H88C88 2.20914 86.2091 4 84 4C81.7909 4 80 2.20914 80 0H46C46 2.20914 44.2091 4 42 4C39.7909 4 38 2.20914 38 0ZM43 6.42857C43 5.87629 42.5523 5.42857 42 5.42857C41.4477 5.42857 41 5.87629 41 6.42857V9.38961C41 9.9419 41.4477 10.3896 42 10.3896C42.5523 10.3896 43 9.9419 43 9.38961V6.42857ZM43 13.3377C43 12.7854 42.5523 12.3377 42 12.3377C41.4477 12.3377 41 12.7854 41 13.3377V16.2987C41 16.851 41.4477 17.2987 42 17.2987C42.5523 17.2987 43 16.851 43 16.2987V13.3377ZM43 20.2468C43 19.6945 42.5523 19.2468 42 19.2468C41.4477 19.2468 41 19.6945 41 20.2468V23.2078C41 23.7601 41.4477 24.2078 42 24.2078C42.5523 24.2078 43 23.7601 43 23.2078V20.2468ZM43 27.1558C43 27.1028 42.9959 27.0508 42.9879 27H43.8095C44.3618 27 44.8095 26.5523 44.8095 26C44.8095 25.4477 44.3618 25 43.8095 25H40.8571C40.3049 25 39.8571 25.4477 39.8571 26C39.8571 26.5523 40.3049 27 40.8571 27H41.0121C41.0041 27.0508 41 27.1028 41 27.1558V30.1169C41 30.6692 41.4477 31.1169 42 31.1169C42.5523 31.1169 43 30.6692 43 30.1169V27.1558ZM43 34.0649C43 33.5126 42.5523 33.0649 42 33.0649C41.4477 33.0649 41 33.5126 41 34.0649V37.026C41 37.5783 41.4477 38.026 42 38.026C42.5523 38.026 43 37.5783 43 37.026V34.0649ZM43 40.974C43 40.4217 42.5523 39.974 42 39.974C41.4477 39.974 41 40.4217 41 40.974V43.9351C41 44.4874 41.4477 44.9351 42 44.9351C42.5523 44.9351 43 44.4874 43 43.9351V40.974ZM84 5.42857C84.5523 5.42857 85 5.87629 85 6.42857V9.38961C85 9.9419 84.5523 10.3896 84 10.3896C83.4477 10.3896 83 9.9419 83 9.38961V6.42857C83 5.87629 83.4477 5.42857 84 5.42857ZM84 12.3377C84.5523 12.3377 85 12.7854 85 13.3377V16.2987C85 16.851 84.5523 17.2987 84 17.2987C83.4477 17.2987 83 16.851 83 16.2987V13.3377C83 12.7854 83.4477 12.3377 84 12.3377ZM84 19.2468C84.5523 19.2468 85 19.6945 85 20.2468V23.2078C85 23.7601 84.5523 24.2078 84 24.2078C83.4477 24.2078 83 23.7601 83 23.2078V20.2468C83 19.6945 83.4477 19.2468 84 19.2468ZM82.1905 27H83.0121C83.0041 27.0508 83 27.1028 83 27.1558V30.1169C83 30.6692 83.4477 31.1169 84 31.1169C84.5523 31.1169 85 30.6692 85 30.1169V27.1558C85 27.1028 84.9959 27.0508 84.9879 27H85.1428C85.6951 27 86.1428 26.5523 86.1428 26C86.1428 25.4477 85.6951 25 85.1428 25H82.1905C81.6382 25 81.1905 25.4477 81.1905 26C81.1905 26.5523 81.6382 27 82.1905 27ZM84 33.0649C84.5523 33.0649 85 33.5126 85 34.0649V37.026C85 37.5783 84.5523 38.026 84 38.026C83.4477 38.026 83 37.5783 83 37.026V34.0649C83 33.5126 83.4477 33.0649 84 33.0649ZM84 39.974C84.5523 39.974 85 40.4217 85 40.974V43.9351C85 44.4874 84.5523 44.9351 84 44.9351C83.4477 44.9351 83 44.4874 83 43.9351V40.974C83 40.4217 83.4477 39.974 84 39.974ZM84 46.8831C84.5523 46.8831 85 47.3308 85 47.8831V50.8442C85 50.8972 84.9959 50.9492 84.9879 51H85.1428C85.6951 51 86.1428 51.4477 86.1428 52C86.1428 52.5523 85.6951 53 85.1428 53H82.1905C81.6382 53 81.1905 52.5523 81.1905 52C81.1905 51.4477 81.6382 51 82.1905 51H83.0121C83.0041 50.9492 83 50.8972 83 50.8442V47.8831C83 47.3308 83.4477 46.8831 84 46.8831ZM84 53.7922C84.5523 53.7922 85 54.2399 85 54.7922V57.7533C85 58.3055 84.5523 58.7533 84 58.7533C83.4477 58.7533 83 58.3055 83 57.7533V54.7922C83 54.2399 83.4477 53.7922 84 53.7922ZM84 60.7013C84.5523 60.7013 85 61.149 85 61.7013V64.6623C85 65.2146 84.5523 65.6623 84 65.6623C83.4477 65.6623 83 65.2146 83 64.6623V61.7013C83 61.149 83.4477 60.7013 84 60.7013ZM84 67.6104C84.5523 67.6104 85 68.0581 85 68.6104V71.5714C85 72.1237 84.5523 72.5714 84 72.5714C83.4477 72.5714 83 72.1237 83 71.5714V68.6104C83 68.0581 83.4477 67.6104 84 67.6104ZM47.746 51C47.1937 51 46.746 51.4477 46.746 52C46.746 52.5523 47.1937 53 47.746 53H50.6984C51.2507 53 51.6984 52.5523 51.6984 52C51.6984 51.4477 51.2507 51 50.6984 51H47.746ZM54.6349 51C54.0826 51 53.6349 51.4477 53.6349 52C53.6349 52.5523 54.0826 53 54.6349 53H57.5873C58.1396 53 58.5873 52.5523 58.5873 52C58.5873 51.4477 58.1396 51 57.5873 51H54.6349ZM61.5238 51C60.9715 51 60.5238 51.4477 60.5238 52C60.5238 52.5523 60.9715 53 61.5238 53H64.4762C65.0285 53 65.4762 52.5523 65.4762 52C65.4762 51.4477 65.0285 51 64.4762 51H61.5238ZM68.4127 51C67.8604 51 67.4127 51.4477 67.4127 52C67.4127 52.5523 67.8604 53 68.4127 53H71.3651C71.9174 53 72.3651 52.5523 72.3651 52C72.3651 51.4477 71.9174 51 71.3651 51H68.4127ZM75.3016 51C74.7493 51 74.3016 51.4477 74.3016 52C74.3016 52.5523 74.7493 53 75.3016 53H78.254C78.8062 53 79.254 52.5523 79.254 52C79.254 51.4477 78.8062 51 78.254 51H75.3016ZM89.0794 51C88.5271 51 88.0794 51.4477 88.0794 52C88.0794 52.5523 88.5271 53 89.0794 53H92.0317C92.584 53 93.0317 52.5523 93.0317 52C93.0317 51.4477 92.584 51 92.0317 51H89.0794ZM95.9682 51C95.416 51 94.9682 51.4477 94.9682 52C94.9682 52.5523 95.416 53 95.9682 53H98.9206C99.4729 53 99.9206 52.5523 99.9206 52C99.9206 51.4477 99.4729 51 98.9206 51H95.9682ZM102.857 51C102.305 51 101.857 51.4477 101.857 52C101.857 52.5523 102.305 53 102.857 53H105.81C106.362 53 106.81 52.5523 106.81 52C106.81 51.4477 106.362 51 105.81 51H102.857ZM109.746 51C109.194 51 108.746 51.4477 108.746 52C108.746 52.5523 109.194 53 109.746 53H112.698C113.251 53 113.698 52.5523 113.698 52C113.698 51.4477 113.251 51 112.698 51H109.746ZM116.635 51C116.083 51 115.635 51.4477 115.635 52C115.635 52.5523 116.083 53 116.635 53H119.587C120.14 53 120.587 52.5523 120.587 52C120.587 51.4477 120.14 51 119.587 51H116.635ZM5.4127 26C5.4127 25.4477 5.86041 25 6.4127 25H9.36508C9.91736 25 10.3651 25.4477 10.3651 26C10.3651 26.5523 9.91736 27 9.36508 27H6.4127C5.86041 27 5.4127 26.5523 5.4127 26ZM12.3016 26C12.3016 25.4477 12.7493 25 13.3016 25H16.254C16.8063 25 17.254 25.4477 17.254 26C17.254 26.5523 16.8063 27 16.254 27H13.3016C12.7493 27 12.3016 26.5523 12.3016 26ZM19.1905 26C19.1905 25.4477 19.6382 25 20.1905 25H23.1429C23.6951 25 24.1429 25.4477 24.1429 26C24.1429 26.5523 23.6951 27 23.1429 27H20.1905C19.6382 27 19.1905 26.5523 19.1905 26ZM26.0794 26C26.0794 25.4477 26.5271 25 27.0794 25H30.0317C30.584 25 31.0317 25.4477 31.0317 26C31.0317 26.5523 30.584 27 30.0317 27H27.0794C26.5271 27 26.0794 26.5523 26.0794 26ZM32.9683 26C32.9683 25.4477 33.416 25 33.9683 25H36.9206C37.4729 25 37.9206 25.4477 37.9206 26C37.9206 26.5523 37.4729 27 36.9206 27H33.9683C33.416 27 32.9683 26.5523 32.9683 26ZM46.746 26C46.746 25.4477 47.1937 25 47.746 25H50.6984C51.2507 25 51.6984 25.4477 51.6984 26C51.6984 26.5523 51.2507 27 50.6984 27H47.746C47.1937 27 46.746 26.5523 46.746 26ZM53.6349 26C53.6349 25.4477 54.0826 25 54.6349 25H57.5873C58.1396 25 58.5873 25.4477 58.5873 26C58.5873 26.5523 58.1396 27 57.5873 27H54.6349C54.0826 27 53.6349 26.5523 53.6349 26ZM60.5238 26C60.5238 25.4477 60.9715 25 61.5238 25H64.4762C65.0285 25 65.4762 25.4477 65.4762 26C65.4762 26.5523 65.0285 27 64.4762 27H61.5238C60.9715 27 60.5238 26.5523 60.5238 26ZM67.4127 26C67.4127 25.4477 67.8604 25 68.4127 25H71.3651C71.9174 25 72.3651 25.4477 72.3651 26C72.3651 26.5523 71.9174 27 71.3651 27H68.4127C67.8604 27 67.4127 26.5523 67.4127 26ZM74.3016 26C74.3016 25.4477 74.7493 25 75.3016 25H78.254C78.8062 25 79.254 25.4477 79.254 26C79.254 26.5523 78.8062 27 78.254 27H75.3016C74.7493 27 74.3016 26.5523 74.3016 26ZM88.0794 26C88.0794 25.4477 88.5271 25 89.0794 25H92.0317C92.584 25 93.0317 25.4477 93.0317 26C93.0317 26.5523 92.584 27 92.0317 27H89.0794C88.5271 27 88.0794 26.5523 88.0794 26ZM94.9682 26C94.9682 25.4477 95.416 25 95.9682 25H98.9206C99.4729 25 99.9206 25.4477 99.9206 26C99.9206 26.5523 99.4729 27 98.9206 27H95.9682C95.416 27 94.9682 26.5523 94.9682 26ZM101.857 26C101.857 25.4477 102.305 25 102.857 25H105.81C106.362 25 106.81 25.4477 106.81 26C106.81 26.5523 106.362 27 105.81 27H102.857C102.305 27 101.857 26.5523 101.857 26ZM108.746 26C108.746 25.4477 109.194 25 109.746 25H112.698C113.251 25 113.698 25.4477 113.698 26C113.698 26.5523 113.251 27 112.698 27H109.746C109.194 27 108.746 26.5523 108.746 26ZM115.635 26C115.635 25.4477 116.083 25 116.635 25H119.587C120.14 25 120.587 25.4477 120.587 26C120.587 26.5523 120.14 27 119.587 27H116.635C116.083 27 115.635 26.5523 115.635 26Z" fill="#236476"/>
<path d="M84 4V5.42857C84.5523 5.42857 85 5.87629 85 6.42857V9.38961C85 9.9419 84.5523 10.3896 84 10.3896V12.3377C84.5523 12.3377 85 12.7854 85 13.3377V16.2987C85 16.851 84.5523 17.2987 84 17.2987V19.2468C84.5523 19.2468 85 19.6945 85 20.2468V23.2078C85 23.7601 84.5523 24.2078 84 24.2078V25H85.1428C85.6951 25 86.1428 25.4477 86.1428 26H88.0794C88.0794 25.4477 88.5271 25 89.0794 25H92.0317C92.584 25 93.0317 25.4477 93.0317 26H94.9682C94.9682 25.4477 95.416 25 95.9682 25H98.9206C99.4729 25 99.9206 25.4477 99.9206 26H101.857C101.857 25.4477 102.305 25 102.857 25H105.81C106.362 25 106.81 25.4477 106.81 26H108.746C108.746 25.4477 109.194 25 109.746 25H112.698C113.251 25 113.698 25.4477 113.698 26H115.635C115.635 25.4477 116.083 25 116.635 25H119.587C120.14 25 120.587 25.4477 120.587 26H122C122 23.7909 123.791 22 126 22V0H88C88 2.20914 86.2091 4 84 4Z" fill="#70C88E"/>
<path d="M44.8095 52H46.746C46.746 51.4477 47.1937 51 47.746 51H50.6984C51.2507 51 51.6984 51.4477 51.6984 52H53.6349C53.6349 51.4477 54.0826 51 54.6349 51H57.5873C58.1396 51 58.5873 51.4477 58.5873 52H60.5238C60.5238 51.4477 60.9715 51 61.5238 51H64.4762C65.0285 51 65.4762 51.4477 65.4762 52H67.4127C67.4127 51.4477 67.8604 51 68.4127 51H71.3651C71.9174 51 72.3651 51.4477 72.3651 52H74.3016C74.3016 51.4477 74.7493 51 75.3016 51H78.254C78.8062 51 79.254 51.4477 79.254 52H81.1905C81.1905 51.4477 81.6382 51 82.1905 51H83.0121C83.0041 50.9492 83 50.8972 83 50.8442V47.8831C83 47.3308 83.4477 46.8831 84 46.8831V44.9351C83.4477 44.9351 83 44.4874 83 43.9351V40.974C83 40.4217 83.4477 39.974 84 39.974V38.026C83.4477 38.026 83 37.5783 83 37.026V34.0649C83 33.5126 83.4477 33.0649 84 33.0649V31.1169C83.4477 31.1169 83 30.6692 83 30.1169V27.1558C83 27.1028 83.0041 27.0508 83.0121 27H82.1905C81.6382 27 81.1905 26.5523 81.1905 26H79.254C79.254 26.5523 78.8062 27 78.254 27H75.3016C74.7493 27 74.3016 26.5523 74.3016 26H72.3651C72.3651 26.5523 71.9174 27 71.3651 27H68.4127C67.8604 27 67.4127 26.5523 67.4127 26H65.4762C65.4762 26.5523 65.0285 27 64.4762 27H61.5238C60.9715 27 60.5238 26.5523 60.5238 26H58.5873C58.5873 26.5523 58.1396 27 57.5873 27H54.6349C54.0826 27 53.6349 26.5523 53.6349 26H51.6984C51.6984 26.5523 51.2507 27 50.6984 27H47.746C47.1937 27 46.746 26.5523 46.746 26H44.8095C44.8095 26.5523 44.3618 27 43.8095 27H42.9879C42.9959 27.0508 43 27.1028 43 27.1558V30.1169C43 30.6692 42.5523 31.1169 42 31.1169V33.0649C42.5523 33.0649 43 33.5126 43 34.0649V37.026C43 37.5783 42.5523 38.026 42 38.026V39.974C42.5523 39.974 43 40.4217 43 40.974V43.9351C43 44.4874 42.5523 44.9351 42 44.9351V46.8831C42.5523 46.8831 43 47.3308 43 47.8831V50.8442C43 50.8972 42.9959 50.9492 42.9879 51H43.8095C44.3618 51 44.8095 51.4477 44.8095 52Z" fill="#70C88E"/>
</svg>
